<svg id="Layer_1" data-name="Layer 1" xmlns="http://www.w3.org/2000/svg" viewBox="0 0 24.04 27.76"><defs><style>.cls-1,.cls-2{fill:#1d1d1b;}.cls-1{stroke:#1d1d1b;stroke-miterlimit:10;stroke-width:0.5px;}</style></defs><rect class="cls-1" x="6.27" y="4.99" width="17.52" height="1.22" rx="0.56"/><rect class="cls-1" x="0.25" y="21.3" width="17.52" height="1.22" rx="0.56"/><rect class="cls-1" x="8.46" y="27.54" width="9.02" height="1.22" rx="0.56" transform="translate(10.59 -5.76) rotate(37.03)"/><rect class="cls-1" x="24.51" y="6.24" width="9.02" height="1.22" rx="0.56" transform="translate(1 -19.72) rotate(37.03)"/><path class="cls-2" d="M21,19.19c-1.78,2.11-3.64,4.42-6.47,4.42s-5-2.56-5-6.11c0-3.26,2.24-6.11,5.32-6.11,2.59,0,4.51,2.44,6.19,4.42,1.78-2.11,3.64-4.42,6.47-4.42s5,2.56,5,6.11c0,3.26-2.24,6.11-5.32,6.11C24.59,23.61,22.67,21.17,21,19.19Zm-1.4-1.69c-1.36-1.49-2.8-3.63-4.83-3.63-1.74,0-3.07,1.69-3.07,3.63,0,2.11,1.26,3.63,3,3.63C16.65,21.13,18.26,19.11,19.59,17.5Zm10.7,0c0-2.11-1.26-3.63-3-3.63-2,0-3.6,2-4.93,3.63,1.36,1.48,2.8,3.63,4.83,3.63C29,21.13,30.29,19.44,30.29,17.5Z" transform="translate(-8.98 -3.62)"/></svg>