<svg width="36" height="36" viewBox="0 0 36 36" fill="none" xmlns="http://www.w3.org/2000/svg">
        <g clip-path="url(#clip0_108_50)">
        <path d="M36 20.424V15.576L31.6965 14.046C31.3995 13.0155 30.9885 12.033 30.48 11.1135L32.442 6.987L29.0145 3.5595L24.888 5.52C23.9685 5.0115 22.9845 4.6005 21.9555 4.3035L20.424 0H15.576L14.0445 4.3035C13.0155 4.6005 12.0315 5.01 11.112 5.52L6.9855 3.558L3.558 6.9855L5.52 11.1135C5.0115 12.033 4.599 13.0155 4.3035 14.046L0 15.576V20.424L4.3035 21.954C4.599 22.9845 5.0115 23.967 5.52 24.8865L3.558 29.013L6.9855 32.442L11.112 30.48C12.0315 30.9885 13.0155 31.3995 14.0445 31.6965L15.576 36H20.424L21.9555 31.6965C22.986 31.3995 23.9685 30.9885 24.888 30.48L29.0145 32.442L32.442 29.013L30.48 24.8865C30.9885 23.967 31.3995 22.9845 31.6965 21.954L36 20.424ZM18 24C14.6865 24 12 21.3135 12 18C12 14.6865 14.6865 12 18 12C21.3135 12 24 14.6865 24 18C24 21.3135 21.3135 24 18 24Z" fill="white"/>
        </g>
        <defs>
        <clipPath id="clip0_108_50">
        <rect width="36" height="36" fill="white"/>
        </clipPath>
        </defs>
        </svg>